<svg id="Layer_1" data-name="Layer 1" xmlns="http://www.w3.org/2000/svg" viewBox="0 0 566.93 566.93"><defs><style>.cls-1{fill:#231f20;}.cls-2{fill:#999;}.cls-3{fill:#cc2d27;}</style></defs><path class="cls-1" d="M176.66,272.38,192.29,171a1.58,1.58,0,0,1,1.55-1.33H217.9a1.57,1.57,0,0,1,1.55,1.33l15.63,101.43a1.57,1.57,0,0,1-1.55,1.81H220.75a1.56,1.56,0,0,1-1.55-1.34L216.56,255a1.58,1.58,0,0,0-1.55-1.34H196.74a1.56,1.56,0,0,0-1.55,1.34l-2.65,17.84a1.56,1.56,0,0,1-1.55,1.34H178.21A1.57,1.57,0,0,1,176.66,272.38Zm37-35.4-6.24-42a1.57,1.57,0,0,0-3.1,0l-6.24,42a1.57,1.57,0,0,0,1.55,1.8h12.48A1.57,1.57,0,0,0,213.66,237Z"/><path class="cls-1" d="M272.88,171.19v35a1.57,1.57,0,0,0,2.93.77l20.63-36.57a1.58,1.58,0,0,1,1.37-.8h14.34a1.57,1.57,0,0,1,1.36,2.34l-22.34,39.58a1.63,1.63,0,0,0-.1,1.33l22.35,59.2a1.57,1.57,0,0,1-1.47,2.12H298a1.58,1.58,0,0,1-1.47-1l-15-39.77a1.57,1.57,0,0,0-2.83-.21l-5.6,9.94a1.58,1.58,0,0,0-.2.77v28.72a1.56,1.56,0,0,1-1.56,1.57H258.94a1.56,1.56,0,0,1-1.56-1.57V171.19a1.57,1.57,0,0,1,1.56-1.57h12.38A1.57,1.57,0,0,1,272.88,171.19Z"/><path class="cls-1" d="M339,169.62h53.1a1.57,1.57,0,0,1,1.57,1.57v12.67a1.57,1.57,0,0,1-1.57,1.57H355.74a1.56,1.56,0,0,0-1.56,1.57v25.44a1.56,1.56,0,0,0,1.56,1.56h31.52a1.57,1.57,0,0,1,1.57,1.57v12.67a1.57,1.57,0,0,1-1.57,1.57H355.74a1.56,1.56,0,0,0-1.56,1.57v25.44a1.56,1.56,0,0,0,1.56,1.56h36.38a1.57,1.57,0,0,1,1.57,1.57v12.67a1.57,1.57,0,0,1-1.57,1.57H339a1.56,1.56,0,0,1-1.56-1.57V171.19A1.57,1.57,0,0,1,339,169.62Z"/><path class="cls-1" d="M416.93,272.62V171.19a1.57,1.57,0,0,1,1.57-1.57h24.42c22,0,31.15,13.53,31.15,31,0,12.13-4.35,22.43-14.55,27.53a1.55,1.55,0,0,0-.81,1.87l14.35,42.09a1.57,1.57,0,0,1-1.48,2.07h-13.7a1.57,1.57,0,0,1-1.49-1.07L443,232.71a1.57,1.57,0,0,0-1.49-1.08H434.3a1.56,1.56,0,0,0-1.56,1.57v39.42a1.57,1.57,0,0,1-1.57,1.57H418.5A1.57,1.57,0,0,1,416.93,272.62Zm15.81-57.75a1.56,1.56,0,0,0,1.56,1.56h8.62c13.68,0,15.2-11.39,15.2-15.8s-1.52-15.81-15.2-15.81H434.3a1.56,1.56,0,0,0-1.56,1.57Z"/><path class="cls-1" d="M176.66,399.47l15.63-101.42a1.57,1.57,0,0,1,1.55-1.33H217.9a1.56,1.56,0,0,1,1.55,1.33l15.63,101.42a1.57,1.57,0,0,1-1.55,1.81H220.75a1.56,1.56,0,0,1-1.55-1.34l-2.64-17.84a1.58,1.58,0,0,0-1.55-1.34H196.74a1.56,1.56,0,0,0-1.55,1.34l-2.65,17.84a1.56,1.56,0,0,1-1.55,1.34H178.21A1.57,1.57,0,0,1,176.66,399.47Zm37-35.4-6.24-42a1.57,1.57,0,0,0-3.1,0l-6.24,42a1.57,1.57,0,0,0,1.55,1.8h12.48A1.57,1.57,0,0,0,213.66,364.07Z"/><path class="cls-1" d="M257.68,325.59c0-18.08,9.12-30.85,28-30.85,23.55,0,28,16.57,28,30.85v1.83H297.8v-1.83c0-4.56-.15-15.5-12.15-15.5s-12.16,10.94-12.16,15.5V372.4c0,4.41.15,15.35,12.16,15.35s12.15-10.94,12.15-15.35V358.47a1.56,1.56,0,0,0-1.56-1.57h-9a1.56,1.56,0,0,1-1.56-1.56V343a1.56,1.56,0,0,1,1.56-1.56h24.84a1.56,1.56,0,0,1,1.56,1.56V372.4c0,18.09-9.12,30.85-28,30.85-22.5,0-28-16.71-28-30.85Z"/><path class="cls-1" d="M353.65,297.71l20.91,53a1.56,1.56,0,0,0,3-.57v-51.9a1.56,1.56,0,0,1,1.57-1.56h12.67a1.56,1.56,0,0,1,1.57,1.56V399.71a1.57,1.57,0,0,1-1.57,1.57H378.65a1.56,1.56,0,0,1-1.46-1l-20.9-53a1.57,1.57,0,0,0-3,.57v51.89a1.56,1.56,0,0,1-1.56,1.57H339a1.56,1.56,0,0,1-1.56-1.57V298.28a1.56,1.56,0,0,1,1.56-1.56H352.2A1.55,1.55,0,0,1,353.65,297.71Z"/><path class="cls-1" d="M418.8,296.72h53.1a1.57,1.57,0,0,1,1.57,1.56V311a1.57,1.57,0,0,1-1.57,1.56H435.52a1.57,1.57,0,0,0-1.57,1.57v25.44a1.57,1.57,0,0,0,1.57,1.57H467a1.56,1.56,0,0,1,1.56,1.56v12.68A1.56,1.56,0,0,1,467,356.9H435.52a1.57,1.57,0,0,0-1.57,1.57v25.44a1.56,1.56,0,0,0,1.57,1.56H471.9a1.57,1.57,0,0,1,1.57,1.57v12.67a1.57,1.57,0,0,1-1.57,1.57H418.8a1.57,1.57,0,0,1-1.57-1.57V298.28A1.56,1.56,0,0,1,418.8,296.72Z"/><path class="cls-1" d="M498.27,296.72h53.41a1.56,1.56,0,0,1,1.56,1.56v13.13a1.56,1.56,0,0,1-1.56,1.57H534.9a1.57,1.57,0,0,0-1.57,1.57v85.16a1.56,1.56,0,0,1-1.56,1.57H518.18a1.57,1.57,0,0,1-1.57-1.57V314.55a1.56,1.56,0,0,0-1.56-1.57H498.27a1.57,1.57,0,0,1-1.57-1.57V298.28A1.57,1.57,0,0,1,498.27,296.72Z"/><rect class="cls-2" x="19.45" y="377.1" width="23.79" height="24.19" rx="1.44"/><path class="cls-3" d="M143.39,174.92a34.8,34.8,0,0,0-12.65-7.56,56.51,56.51,0,0,0-17.3-2.48c-12.08,0-18.53,2.88-25.06,8.25a1.44,1.44,0,0,1-1.81,0,32.87,32.87,0,0,0-10.49-5.78,56.51,56.51,0,0,0-17.3-2.48c-13.35,0-19.85,3.53-27.15,10a35,35,0,0,0-12.18,26.89V364.42a1.44,1.44,0,0,0,1.44,1.44h20.9a1.45,1.45,0,0,0,1.45-1.44V202.2c0-5.2,1.26-9,4-12.08,2.88-3.26,6.45-4.65,11.94-4.65s8.58,1.32,11.16,4.65c2.5,2.81,3.57,6.42,3.57,12.08V364.42a1.45,1.45,0,0,0,1.44,1.44H96.65a1.45,1.45,0,0,0,1.45-1.44V200.91c.22-4.71,1.43-8.14,3.8-10.79,2.88-3.26,6.45-4.65,11.94-4.65s8.58,1.32,11.16,4.65c2.5,2.81,3.57,6.42,3.57,12.08V364.42a1.45,1.45,0,0,0,1.44,1.44h21.31a1.45,1.45,0,0,0,1.45-1.44V201.81C152.76,193.48,149.87,180.67,143.39,174.92Z"/><path class="cls-2" d="M73.9,399.6l.21,1.69H96.65a1.45,1.45,0,0,0,1.45-1.44V378.54a1.44,1.44,0,0,0-1.45-1.44H75.34a1.44,1.44,0,0,0-1.44,1.44Z"/><rect class="cls-2" x="128.56" y="377.1" width="24.2" height="24.19" rx="1.44"/><path class="cls-1" d="M525,169.93c22.83,0,28,16,28,30.89v2a1.62,1.62,0,0,1-1.62,1.63H539.27a1.63,1.63,0,0,1-1.63-1.63v-2c0-5-.46-15.37-12.63-15.37-11.57,0-12.48,9.44-12.48,12.94V199c0,8.83,5.48,11.22,13.7,15,16.43,7.61,26.78,10.46,26.78,30.7,0,16.89-7.3,29.83-28,29.83-22.83,0-28-16-28-30.89v-7.82a1.62,1.62,0,0,1,1.62-1.62h12.12a1.63,1.63,0,0,1,1.63,1.62v7.82c0,5,.45,15.37,12.63,15.37,11.57,0,12.48-9.44,12.48-12.94v-.61c0-7.61-2.74-10-13.7-14.87-16.44-7.3-26.78-12-26.78-30.85C497,182.41,505.53,169.93,525,169.93Z"/></svg>